<svg xmlns="http://www.w3.org/2000/svg" width="12" height="12" viewBox="0 0 10 11">
  <g id="Контур_1" data-name="Контур 1" transform="translate(0 7.776)" fill="none">
    <path d="M2.5-.446a6.6,6.6,0,0,1,5,0C9.375.209,10,.728,10,2.175V3.224H0V2.175C0,.728.625.209,2.5-.446Z" stroke="none"/>
    <path d="M 5 0.06249904632568359 C 4.360960006713867 0.06249904632568359 3.691679954528809 0.1968091726303101 2.829919815063477 0.4979891777038574 C 2.256659984588623 0.6983391046524048 1.559639930725098 0.9674791097640991 1.255610466003418 1.272919178009033 C 1.131939888000488 1.397159099578857 1 1.579589128494263 1 2.175179243087769 L 1 2.223659038543701 L 9 2.223659038543701 L 9 2.175179243087769 C 9 1.579589128494263 8.868060111999512 1.397159099578857 8.744390487670898 1.272919178009033 C 8.440360069274902 0.9674791097640991 7.743340015411377 0.6983391046524048 7.170080184936523 0.4979891777038574 C 6.308320045471191 0.1968091726303101 5.639039993286133 0.06249904632568359 5 0.06249904632568359 M 5 -0.9374959468841553 C 5.78125 -0.9374959468841553 6.5625 -0.7736709117889404 7.5 -0.4460208415985107 C 9.375 0.2092791795730591 10 0.7275291681289673 10 2.175179243087769 L 10 3.223659038543701 L 0 3.223659038543701 L 0 2.175179243087769 C 0 0.7275291681289673 0.625 0.2092791795730591 2.5 -0.4460208415985107 C 3.4375 -0.7736709117889404 4.21875 -0.9374959468841553 5 -0.9374959468841553 Z" stroke="none" fill="#fff"/>
  </g>
  <g id="Эллипс_1" data-name="Эллипс 1" transform="translate(2)" fill="none" stroke="#fff" stroke-width="1">
    <circle cx="3" cy="3" r="3" stroke="none"/>
    <circle cx="3" cy="3" r="2.5" fill="none"/>
  </g>
</svg>
