<svg xmlns="http://www.w3.org/2000/svg" width="25" height="25" viewBox="0 0 25 25">
  <g id="Избранное_не_активно" data-name="Избранное не активно" fill="#fff">
    <path d="M 18.88387680053711 23.09452819824219 L 12.991530418396 19.7688102722168 L 12.5 19.49138069152832 L 12.008469581604 19.7688102722168 L 6.116124153137207 23.09452819824219 L 7.316850185394287 16.09626007080078 L 7.403989791870117 15.58837985992432 L 7.040949821472168 15.22266006469727 L 2.111073732376099 10.25637340545654 L 8.829580307006836 9.292010307312012 L 9.368889808654785 9.214599609375 L 9.596260070800781 8.719479560852051 L 12.5 2.396250009536743 L 15.40373992919922 8.719479560852051 L 15.63111019134521 9.214599609375 L 16.17041969299316 9.292010307312012 L 22.88892555236816 10.25637340545654 L 17.95904922485352 15.22266006469727 L 17.59601020812988 15.58837985992432 L 17.68314933776855 16.09626007080078 L 18.88387680053711 23.09452819824219 Z" stroke="none"/>
    <path d="M 12.5 4.792499542236328 L 10.50502014160156 9.136799812316895 L 10.05027961730957 10.12705039978027 L 8.971660614013672 10.28186988830566 L 4.222164154052734 10.96360492706299 L 7.750659942626953 14.51815986633301 L 8.476730346679688 15.24958992004395 L 8.302450180053711 16.2653694152832 L 7.457670211791992 21.18905067443848 L 11.51694965362549 18.89793968200684 L 12.5 18.34309959411621 L 13.48305034637451 18.89793968200684 L 17.54232978820801 21.18905067443848 L 16.69754981994629 16.2653694152832 L 16.52326965332031 15.24958992004395 L 17.24934005737305 14.51815986633301 L 20.77783584594727 10.96360492706299 L 16.02833938598633 10.28186988830566 L 14.94972038269043 10.12705039978027 L 14.49497985839844 9.136799812316895 L 12.5 4.792499542236328 M 12.5 0 L 16.3125 8.302160263061523 L 25 9.549150466918945 L 18.66875076293945 15.92716026306152 L 20.22541999816895 25 L 12.5 20.63966941833496 L 4.774580001831055 25 L 6.331249237060547 15.92716026306152 L 0 9.549150466918945 L 8.6875 8.302160263061523 L 12.5 0 Z" stroke="none"/>
  </g>
</svg>
