<?xml version="1.0" encoding="utf-8"?>
<!-- Generator: Adobe Illustrator 22.1.0, SVG Export Plug-In . SVG Version: 6.00 Build 0)  -->
<svg version="1.1" id="Слой_1" xmlns="http://www.w3.org/2000/svg" xmlns:xlink="http://www.w3.org/1999/xlink" x="0px" y="0px"
	 viewBox="0 0 228.7 95.5" style="enable-background:new 0 0 228.7 95.5;" xml:space="preserve">
<style type="text/css">
	.st0{fill:#fff ;}
	.st1{fill:#fff ;stroke:#fff ;stroke-width:0.25;stroke-miterlimit:10;}
</style>
<path class="st0" d="M5.7,46.8c-2-3.9-3.1-8.4-3-13.2C2.9,18.7,14.3,6.8,28.2,7C42,7.2,53.1,19.5,52.8,34.3
	c-0.1,4.8-1.3,9.2-3.4,13.1c-4.2-8.3-12.3-14-21.7-14.1C18.4,33.2,10.1,38.6,5.7,46.8z"/>
<path class="st0" d="M43.8,88.8c-4,2.1-8.6,3.3-13.5,3.2C15.1,92,2.8,80.4,2.8,66.1s12.5-25.9,27.7-25.8c4.9,0,9.5,1.2,13.5,3.4
	C35.5,48,29.8,56.4,29.8,66.2C29.7,75.9,35.4,84.4,43.8,88.8z"/>
<path class="st0" d="M46.7,9.4c4.1-2,8.7-3,13.6-2.8c15.2,0.6,27.1,12.7,26.5,27.1c-0.6,14.3-13.4,25.4-28.6,24.8
	c-4.9-0.2-9.4-1.6-13.3-3.9c8.6-4.1,14.6-12.3,15-22.1C60.3,22.9,54.9,14.2,46.7,9.4z"/>
<path class="st0" d="M82.4,49.5c2.3,3.9,3.8,8.4,4.2,13.4c1.1,15.4-9.4,28.7-23.4,29.7c-14,1-26.2-10.6-27.3-26
	c-0.3-4.9,0.5-9.7,2.3-13.8c4.9,8.2,13.6,13.3,23.1,12.6S78.7,58.3,82.4,49.5z"/>
<g>
	<g>
		<path class="st1" d="M110,4.7c8.5,0,15.4,6.3,15.4,15.6c0,10-7,16.3-15.6,16.3c-9.2,0-15.8-6.8-15.8-15.9
			C94,12.7,99.5,4.7,110,4.7z M109.3,6.8c-4.7,0-8.1,4.7-8.1,13c0,7.9,3.1,14.7,9.3,14.7c4.4,0,7.7-4.3,7.7-12.9
			C118.2,12.3,114.6,6.8,109.3,6.8z"/>
		<path class="st1" d="M141.8,35.9v-1.6c1.9-0.3,2.1-0.5,2.1-3.7v-8c0-3.3-1.6-4.4-3.2-4.4c-1.2,0-2.2,0.5-3.4,1.4V31
			c0,2.9,0.2,3,2.1,3.3v1.6h-10.6v-1.6c2.4-0.4,2.7-0.5,2.7-3.5V21c0-2.8-0.4-3-2.4-3.4v-1.5c2.7-0.3,5.8-0.9,8.4-1.8
			c0,0.7-0.1,2.3-0.1,3.4c0.9-0.7,1.9-1.4,2.9-2c1.4-0.8,2.2-1.2,3.6-1.2c3.7,0,6.1,2.8,6.1,7.6v8.9c0,2.9,0.3,3,2.5,3.4v1.6H141.8z
			"/>
		<path class="st1" d="M154.3,35.9v-1.6c2.6-0.4,2.7-0.7,2.7-3.6V9.3c0-2.4-0.3-2.7-2.7-3.2V4.6c3.2-0.3,6.4-0.9,8.6-1.6
			c0,2.1,0,4.2,0,6.4v21.3c0,3.1,0.1,3.3,2.8,3.6v1.6H154.3z"/>
		<path class="st1" d="M167.7,35.9v-1.6c2.5-0.3,2.8-0.5,2.8-3.8v-9.1c0-3.1-0.2-3.3-2.4-3.6v-1.5c2.9-0.3,5.8-0.9,8.3-1.7
			c0,2,0,3.9,0,5.8v10.2c0,3.2,0.2,3.5,2.8,3.8v1.6H167.7z M173.1,11.6c-1.7,0-3.3-1.5-3.3-3.3c0-1.9,1.6-3.3,3.3-3.3
			c1.8,0,3.3,1.4,3.3,3.3C176.5,10.1,175,11.6,173.1,11.6z"/>
		<path class="st1" d="M194.5,35.9v-1.6c1.9-0.3,2.1-0.5,2.1-3.7v-8c0-3.3-1.6-4.4-3.2-4.4c-1.2,0-2.2,0.5-3.4,1.4V31
			c0,2.9,0.2,3,2.1,3.3v1.6h-10.6v-1.6c2.4-0.4,2.7-0.5,2.7-3.5V21c0-2.8-0.4-3-2.4-3.4v-1.5c2.7-0.3,5.8-0.9,8.4-1.8
			c0,0.7-0.1,2.3-0.1,3.4c0.9-0.7,1.9-1.4,2.9-2c1.4-0.8,2.2-1.2,3.6-1.2c3.7,0,6.1,2.8,6.1,7.6v8.9c0,2.9,0.3,3,2.5,3.4v1.6H194.5z
			"/>
		<path class="st1" d="M225.5,31.3c-2.8,4.2-6.5,5.2-8.4,5.2c-6.1,0-9.6-4.6-9.6-10.2c0-3.3,1.5-6.5,3.4-8.4
			c2.1-2.1,4.6-3.3,7.2-3.3c4.5,0,7.6,3.8,7.6,7.6c0,0.8,0,1.6-0.6,1.7c-0.9,0.2-7.3,0.6-11.8,0.8c0.2,5,2.9,7.5,6.2,7.5
			c1.8,0,3.6-0.7,5.2-2.1L225.5,31.3z M217.2,16.4c-1.8,0-3.4,2.2-3.7,5.9c1.9,0,3.6-0.1,5.5-0.1c0.6,0,0.9-0.1,0.9-0.9
			C220,18.9,218.9,16.4,217.2,16.4z"/>
		<path class="st1" d="M111.2,69.4c-0.9-3-2.2-6.4-6.4-6.4c-2.7,0-4.4,1.9-4.4,4.5c0,2.6,1.7,4.1,5.7,6.2c4.9,2.5,8,4.9,8,9.6
			c0,5.5-4.5,9.6-11,9.6c-2.9,0-5.5-0.8-7.7-1.5c-0.3-1.1-1.1-6-1.4-8.2l1.8-0.4c0.9,3,3.5,8.1,8,8.1c2.8,0,4.5-1.8,4.5-4.8
			c0-2.7-1.6-4.3-5.5-6.4c-4.8-2.6-7.9-5-7.9-9.9c0-5.1,3.8-8.8,10.6-8.8c3.2,0,5.5,0.7,6.6,0.8c0.2,1.7,0.5,4.2,0.9,7.1L111.2,69.4
			z"/>
		<path class="st1" d="M127.3,92.2c-0.8,0.4-1.5,0.5-1.8,0.5c-3.5,0-5.6-1.7-5.6-6V73.7h-2.9l-0.3-0.6l1.3-1.8h1.9v-3.9
			c1.6-1.1,3.8-2.6,5.4-3.8l0.6,0.4c0,1.3-0.1,3.8-0.1,7.3h4.6c0.4,0.5,0.2,1.9-0.4,2.3h-4.2v11.5c0,3.7,1.5,4.1,2.3,4.1
			c0.8,0,1.4-0.1,2.2-0.5l0.5,1.7L127.3,92.2z"/>
		<path class="st1" d="M143.8,70.8c6.5,0,10.5,5,10.5,10.6c0,7.6-5.3,11.4-10.7,11.4c-6.9,0-10.9-5.3-10.9-10.8
			C132.8,74.7,138.5,70.8,143.8,70.8z M143.3,72.6c-2,0-3.9,2.1-3.9,7.9c0,5.8,1.9,10.3,4.8,10.3c1.7,0,3.6-1.2,3.6-8.1
			C147.8,76.2,146.1,72.6,143.3,72.6z"/>
		<path class="st1" d="M169.3,92.2h-12.1v-1.6c2.4-0.3,2.7-0.5,2.7-3.3V77c0-2.3-0.2-2.6-2.3-3v-1.5c2.8-0.3,5.4-0.9,8.3-1.8
			c0,1.5,0,3.6,0,5.1c2.1-3.2,3.7-5,5.6-5c1.7,0,3,1.2,3,2.8c0,2.3-1.6,3.6-2.3,4c-0.6,0.3-1.1,0-1.4-0.2c-0.8-0.7-1.4-1.4-2.2-1.4
			c-0.7,0-1.8,0.6-2.7,2.4v8.9c0,2.8,0.3,3,3.5,3.3V92.2z"/>
		<path class="st1" d="M193.9,87.6c-2.8,4.2-6.5,5.2-8.4,5.2c-6.1,0-9.6-4.6-9.6-10.2c0-3.3,1.5-6.5,3.4-8.4
			c2.1-2.1,4.6-3.3,7.2-3.3c4.5,0,7.6,3.8,7.6,7.6c0,0.8,0,1.6-0.6,1.7c-0.9,0.2-7.3,0.6-11.8,0.8c0.2,5,2.9,7.5,6.2,7.5
			c1.8,0,3.6-0.7,5.2-2.1L193.9,87.6z M185.5,72.7c-1.8,0-3.4,2.2-3.7,5.9c1.9,0,3.6-0.1,5.5-0.1c0.6,0,0.9-0.1,0.9-0.9
			C188.4,75.2,187.3,72.7,185.5,72.7z"/>
		<path class="st1" d="M209.4,77.4c-1.2-3.3-2.8-4.8-4.9-4.8c-1.3,0-2.4,0.9-2.4,2.5c0,1.6,1.1,2.5,3.5,3.6c3.7,1.7,6.2,3.3,6.2,7
			c0,4.7-4.4,7-8.3,7c-2.4,0-4.9-0.9-5.8-1.4c-0.2-1.1-0.6-4.3-0.7-6l1.5-0.3c1,3,2.8,5.7,5.8,5.7c1.7,0,2.6-1.1,2.6-2.4
			c0-1.5-0.7-2.5-3.5-3.9c-3-1.5-6-3.1-6-7c0-3.7,3-6.6,7.8-6.6c2.2,0,3.9,0.5,5,0.7c0.1,1.3,0.5,4.3,0.7,5.5L209.4,77.4z"/>
	</g>
</g>
</svg>
